{"title":"Once Upon A Time In The West   (Western 1968)   Charles Bronson,","uid":9275676,"size":662706128,"categoryP":"video","categoryS":"movies","magnet":"?xt=urn:btih:a5cd276a97751d1a701a56b49fb78804423b1ceb&amp;dn=Once+Upon+A+Time+In+The+West+++%28Western+1968%29+++Charles+Bronson%2C&amp;tr=udp%3A%2F%2Ftracker.openbittorrent.com%3A80&amp;tr=udp%3A%2F%2Fopen.demonii.com%3A1337&amp;tr=udp%3A%2F%2Ftracker.coppersurfer.tk%3A6969&amp;tr=udp%3A%2F%2Fexodus.desync.com%3A6969","seeders":4,"leechers":0,"uploader":"BurtonW","files":1,"time":1385850956,"description":"Very good quality film.\n\n\nNo subtitles!\n\n\nStoryline:\n\nStory of a young woman, Mrs. McBain, who moves from New Orleans to frontier Utah, on the very edge of the American West. She arrives to find her new husband and family slaughtered, but by who? The prime suspect, coffee-lover Cheyenne, befriends her and offers to go after the real killer, assassin gang leader Frank, in her honor. He is accompanied by Harmonica on his quest to get even.\n\n\n\nTechnical info:\n\n\nGeneral:\n\nComplete name                  : Once Upon A Time In The West   (Western 1968)   Charles Bronson, Henry Fonda, Claudia Cardinale &amp; Jason Robards.mp4\nFormat                         : MPEG-4\nFormat profile                 : Base Media / Version 2\nCodec ID                       : mp42\nFile size                      : 632 MiB\nDuration                       : 2h 45mn\nOverall bit rate mode          : Variable\nOverall bit rate               : 533 Kbps\nEncoded date                   : UTC 2013-10-28 00:37:28\nTagged date                    : UTC 2013-10-28 03:50:25\n\nVideo:\n\nID                             : 1\nFormat                         : AVC\nFormat/Info                    : Advanced Video Codec\nFormat profile                 : &lt;a class=&quot;__cf_email__&quot; href=&quot;/cdn-cgi/l/email-protection&quot; data-cfemail=&quot;c588a4acab8589f1ebf5&quot;&gt;[email&amp;#160;protected]&lt;/a&gt;&lt;script cf-hash='f9e31' type=&quot;text/javascript&quot;&gt;\n/* &lt;![CDATA[ */!function(){try{var t=&quot;currentScript&quot;in document?document.currentScript:function(){for(var t=document.getElementsByTagName(&quot;script&quot;),e=t.length;e--;)if(t[e].getAttribute(&quot;cf-hash&quot;))return t[e]}();if(t&amp;&amp;t.previousSibling){var e,r,n,i,c=t.previousSibling,a=c.getAttribute(&quot;data-cfemail&quot;);if(a){for(e=&quot;&quot;,r=parseInt(a.substr(0,2),16),n=2;a.length-n;n+=2)i=parseInt(a.substr(n,2),16)^r,e+=String.fromCharCode(i);e=document.createTextNode(e),c.parentNode.replaceChild(e,c)}}}catch(u){}}();/* ]]&gt; */&lt;/script&gt;\nFormat settings, CABAC         : Yes\nFormat settings, ReFrames      : 4 frames\nCodec ID                       : avc1\nCodec ID/Info                  : Advanced Video Coding\nDuration                       : 2h 45mn\nBit rate mode                  : Variable\nBit rate                       : 368 Kbps\nWidth                          : 720 pixels\nHeight                         : 480 pixels\nDisplay aspect ratio           : 3:2\nFrame rate mode                : Variable\nFrame rate                     : 23.976 fps\nMinimum frame rate             : 23.256 fps\nMaximum frame rate             : 25.000 fps\nStandard                       : NTSC\nColor space                    : YUV\nChroma subsampling             : 4:2:0\nBit depth                      : 8 bits\nScan type                      : Progressive\nBits/(Pixel*Frame)             : 0.044\nStream size                    : 436 MiB (69%)\nWriting library                : x264 core 130 r2273 b3065e6\nEncoding settings              : Deleted\nEncoded date                   : UTC 2013-10-28 00:37:28\nTagged date                    : UTC 2013-10-28 03:50:25\nColor primaries                : BT.709\nTransfer characteristics       : BT.709\nMatrix coefficients            : BT.709\n\nAudio:\n\nID                             : 2\nFormat                         : AAC\nFormat/Info                    : Advanced Audio Codec\nFormat profile                 : LC\nCodec ID                       : 40\nDuration                       : 2h 45mn\nBit rate mode                  : Variable\nBit rate                       : 160 Kbps\nMaximum bit rate               : 314 Kbps\nChannel(s)                     : 2 channels\nChannel positions              : Front: L R\nSampling rate                  : 48.0 KHz\nCompression mode               : Lossy\nDelay relative to video        : 84ms\nStream size                    : 189 MiB (30%)\nLanguage                       : English\nEncoded date                   : UTC 2013-10-28 00:37:28\nTagged date                    : UTC 2013-10-28 03:50:24\n\n","torrent":{"xt":"urn:btih:a5cd276a97751d1a701a56b49fb78804423b1ceb","amp;dn":"Once+Upon+A+Time+In+The+West+++%28Western+1968%29+++Charles+Bronson%2C","amp;tr":["udp%3A%2F%2Ftracker.openbittorrent.com%3A80","udp%3A%2F%2Fopen.demonii.com%3A1337","udp%3A%2F%2Ftracker.coppersurfer.tk%3A6969","udp%3A%2F%2Fexodus.desync.com%3A6969"],"infoHash":"a5cd276a97751d1a701a56b49fb78804423b1ceb","infoHashBuffer":{"type":"Buffer","data":[165,205,39,106,151,117,29,26,112,26,86,180,159,183,136,4,66,59,28,235]},"announce":[],"urlList":[]}}